<?xml version="1.0" standalone="no"?>
<!DOCTYPE svg PUBLIC "-//W3C//DTD SVG 20010904//EN"
 "http://www.w3.org/TR/2001/REC-SVG-20010904/DTD/svg10.dtd">
<svg version="1.0" xmlns="http://www.w3.org/2000/svg"
 width="346.000000pt" height="391.000000pt" viewBox="0 0 346.000000 391.000000"
 preserveAspectRatio="xMidYMid meet">

<g transform="translate(0.000000,391.000000) scale(0.100000,-0.100000)"
fill="#000000" stroke="none">
<path d="M1500 3894 c-805 -116 -1356 -728 -1481 -1644 -17 -123 -18 -517 -1
-635 55 -391 183 -725 371 -970 246 -320 562 -520 958 -606 126 -27 432 -37
584 -19 198 23 452 101 609 187 247 137 473 351 614 584 257 425 360 1018 276
1590 -124 843 -662 1414 -1427 1514 -138 18 -374 18 -503 -1z m448 -240 c93
-17 229 -62 312 -104 77 -39 227 -139 278 -186 l42 -39 -239 -595 -239 -595
-51 0 c-28 1 -194 2 -369 3 l-319 2 -228 593 c-125 325 -229 597 -232 603 -6
17 174 146 284 202 153 79 279 116 463 136 57 6 209 -4 298 -20z m-1108 -1079
c73 -225 135 -416 138 -422 3 -10 -32 -13 -153 -13 l-158 0 7 148 c22 471 26
564 26 631 0 41 2 72 4 70 2 -2 64 -188 136 -414z m1940 -20 c6 -176 13 -344
16 -372 l6 -53 -172 0 c-160 0 -172 1 -165 18 37 93 177 478 231 639 l69 202
2 -57 c1 -31 7 -201 13 -377z m-2296 -55 c-12 -179 -23 -333 -23 -342 -1 -16
-12 -18 -86 -18 -85 0 -85 0 -85 26 0 47 41 226 77 339 29 92 132 331 138 323
1 -2 -9 -149 -21 -328z m2537 213 c52 -115 109 -292 134 -419 36 -176 40 -164
-55 -164 -72 0 -80 2 -80 19 0 35 -30 526 -35 579 -3 28 -3 52 0 52 3 0 19
-30 36 -67z m-2576 -765 c5 -6 -40 -647 -46 -652 -18 -18 -103 337 -114 474
-3 41 -8 102 -11 134 l-5 59 87 -6 c47 -3 88 -8 89 -9z m2742 -125 c-4 -71
-16 -173 -27 -227 -19 -98 -78 -301 -85 -295 -1 2 -10 130 -19 284 -9 154 -19
297 -21 317 l-5 37 62 4 c35 2 72 4 82 5 18 2 19 -4 13 -125z m-2273 97 c76
-5 140 -11 141 -12 1 -2 127 -379 280 -838 153 -459 280 -841 283 -847 11 -33
-169 3 -314 62 -154 62 -308 163 -445 293 -73 68 -206 227 -248 296 l-24 39
34 513 33 514 61 -5 c33 -3 123 -10 199 -15z m1896 -7 c0 -10 14 -227 30 -483
16 -256 30 -484 30 -507 0 -37 -9 -54 -74 -140 -93 -124 -267 -293 -376 -365
-161 -106 -323 -174 -485 -201 -44 -8 -81 -13 -82 -12 -4 2 133 501 202 738
110 378 210 687 294 908 l22 57 192 9 c106 5 204 10 220 11 20 2 27 -3 27 -15z
m-810 -30 c0 -5 -31 -93 -70 -198 l-69 -190 -1 192 0 192 43 4 c81 7 97 7 97
0z m-384 -16 c2 -7 3 -108 2 -224 l-3 -211 -76 224 -77 224 74 0 c51 0 76 -4
80 -13z"/>
<path d="M1683 2850 c-104 -21 -187 -98 -224 -207 -28 -84 -24 -223 8 -294 47
-106 142 -170 255 -171 189 -3 310 126 312 332 1 126 -21 189 -92 259 -73 72
-163 100 -259 81z m174 -176 c64 -52 83 -88 83 -158 0 -50 -5 -70 -26 -102
-46 -71 -137 -114 -208 -98 -190 41 -238 256 -80 362 46 32 53 34 121 30 62
-3 77 -7 110 -34z"/>
</g>
</svg>
